<?xml version="1.0" standalone="no"?>
<!DOCTYPE svg PUBLIC "-//W3C//DTD SVG 20010904//EN"
 "http://www.w3.org/TR/2001/REC-SVG-20010904/DTD/svg10.dtd">
<svg version="1.0" xmlns="http://www.w3.org/2000/svg"
 width="420.000000pt" height="420.000000pt" viewBox="0 0 420.000000 420.000000"
 preserveAspectRatio="xMidYMid meet">
<metadata>
Created by potrace 1.14, written by Peter Selinger 2001-2017
</metadata>
<g transform="translate(0.000000,420.000000) scale(0.100000,-0.100000)"
fill="#000000" stroke="none">
<path d="M2160 3523 c-581 -18 -1011 -115 -1255 -284 -177 -122 -273 -281
-294 -486 -17 -167 17 -291 107 -393 99 -113 291 -160 445 -109 138 45 218
145 225 279 6 104 -28 179 -99 215 -48 25 -78 18 -162 -37 -73 -48 -85 -52
-139 -53 -56 0 -62 2 -93 37 -105 114 -58 308 106 434 201 154 555 220 640
118 12 -15 15 -213 19 -1333 l5 -1316 26 -56 c48 -102 131 -142 299 -143 142
0 209 20 271 82 26 26 53 65 60 87 11 32 14 296 19 1350 4 1084 7 1314 19
1335 42 77 122 116 221 107 180 -16 332 -214 379 -492 26 -159 19 -488 -15
-665 -56 -297 -197 -430 -410 -388 l-72 14 -12 -39 c-6 -22 -8 -43 -3 -47 23
-21 155 -43 263 -44 156 -1 256 21 395 88 183 88 295 199 385 381 59 119 87
222 99 368 45 530 -231 863 -797 962 -167 29 -343 37 -632 28z"/>
</g>
</svg>
